<?xml version="1.0" encoding="utf-8"?>
<!-- Generator: Adobe Illustrator 25.0.0, SVG Export Plug-In . SVG Version: 6.00 Build 0)  -->
<svg version="1.1" baseProfile="basic" id="Capa_1" xmlns="http://www.w3.org/2000/svg" xmlns:xlink="http://www.w3.org/1999/xlink"
	 x="0px" y="0px" viewBox="0 0 478.7 402.1" xml:space="preserve">
<image style="overflow:visible;" width="3840" height="2160" xlink:href="converseLogo.png"  transform="matrix(0.3602 0 0 0.3602 -2182 -448)">
</image>
<image style="overflow:visible;" width="800" height="800" xlink:href="fondo-negro-vectorial-del-logotipo-de-nike-marca-para-uso-impreso-ropa-deportiva-y-fitness-183282388.jpg"  transform="matrix(1 0 0 1 -1599 2)">
</image>
<g>
	<path d="M227.1,141.9c11.8-6.8,23-13.2,34.6-19.8c19.8,34.2,39.5,68.2,59.5,102.6c-1.2,0.2-2.1,0.5-3,0.5
		c-13.2,0-26.3,0.1-39.5-0.1c-1.6,0-4-1.1-4.8-2.4C258.3,196.1,242.9,169.2,227.1,141.9z"/>
	<path d="M187.6,178.3c11.5-6.6,22.7-13.1,34.5-19.9c12.8,22.2,25.5,44.1,38.7,66.8c-12.4,0-23.7,0-35.7,0c-0.2,3.4-0.4,6.3-0.5,9.6
		c-3,0-5.9,0-9,0c-0.4-16.5-12.9-27.6-19.4-41.5C193.7,188.2,190.6,183.5,187.6,178.3z"/>
	<path d="M270.9,279.7c-4-1-7-2-10.2-2.5c-1.3-0.2-2.7,0.6-4,1.1c-11.3,4.1-23.2-1.6-26.9-12.9c-3.7-11.1,2.5-23.3,14-25.7
		c5.4-1.1,11.3,0.2,17.3,0.4c0-3.8,0-8.8,0-14.2c3.3,0,6.4,0,9.7,0c0.1,1,0.2,1.8,0.2,2.6C270.9,245,270.9,261.5,270.9,279.7z
		 M261,259.3c0.1-6.3-4.8-11.5-11.1-11.7c-6-0.2-11.6,5.1-11.8,11.1c-0.2,6.1,5,11.4,11.3,11.5C255.9,270.4,261,265.6,261,259.3z"/>
	<path d="M200,241.3c0-5,0-10,0-15.4c3.3,0,6.4,0,9.7,0c0,17.5,0,34.9,0,53.1c-3.7-0.3-7.2-0.6-10.6-0.8c0-0.5,0.1-0.9,0.1-1.4
		c-11.3,4.8-20.5,3.1-27.1-4.9c-5.4-6.6-6-16.6-1.3-23.8C176.6,239.1,185,237.2,200,241.3z M200.1,259.3c0.1-6.2-5-11.6-11.2-11.7
		c-6.2-0.1-11.6,5-11.8,11.2c-0.1,6.3,4.8,11.4,11.2,11.5C194.7,270.4,199.9,265.5,200.1,259.3z"/>
	<path d="M163.7,279.6c-3.6-1-6.7-2-9.9-2.5c-1.3-0.2-2.7,0.8-4.1,1.2c-11.2,4-23.2-1.9-26.8-13.2c-3.5-10.9,2.6-22.8,13.8-25.4
		c5.2-1.2,11,0,16.3,0.5c3.4-0.6,6.8-1.1,10.7-1.8C163.7,252.2,163.7,265.1,163.7,279.6z M154.3,258.9c-0.1-6.2-5.3-11.4-11.6-11.3
		c-6.1,0-11.6,5.5-11.5,11.5c0,6.1,5.4,11.2,11.7,11.2C149.4,270.2,154.4,265.2,154.3,258.9z"/>
	<path d="M305.6,240.1c3.3-0.5,6.5-1,10.3-1.6c0,13.7,0,26.7,0,41c-3.4-0.9-6.5-1.8-9.6-2.4c-0.8-0.2-1.8,0.4-2.7,0.8
		c-10,3.7-19.4,1.2-25.3-6.9c-5.5-7.4-5.3-17.4,0.5-24.5c6.2-7.7,15.8-9.8,25.7-5.6c0.5,0.2,0.9,0.3,1.4,0.5
		C305.7,240.9,305.6,240.5,305.6,240.1z M295.3,270.3c6.3,0,11.6-5.4,11.4-11.5c-0.2-5.9-5.5-11.1-11.3-11.2
		c-6.2-0.1-11.4,5.1-11.5,11.4C283.9,265.4,288.9,270.3,295.3,270.3z"/>
	<path d="M199.6,225.3c-15.3,0-29.4,0.1-43.6-0.1c-1.3,0-3-1.2-3.8-2.3c-1.9-2.7-3.4-5.7-5.3-9.1c11.4-6.6,22.7-13.2,34.5-19.9
		C187.4,204.1,193.3,214.2,199.6,225.3z"/>
	<path d="M355.2,251.5c-5.3-0.4-9.5,1.7-12-3.6c-1.2-2.6-8.5-2.5-10.6-0.3c-2.5,2.6-0.8,4.4,1.7,5.2c3.3,1,6.8,1.5,10.2,2.2
		c8,1.7,11.9,5.6,11.7,11.9c-0.2,6.8-4.8,11.6-12.7,12.2c-4.7,0.3-9.7,0-14.2-1.2c-5.2-1.5-8.5-5.5-8.6-11.7
		c4.4,0.3,9.2-2.1,12.1,3.8c0.8,1.5,4.8,2.3,7.2,2c2-0.2,3.8-2.5,5.6-3.8c-1.6-1.3-3.1-3.3-4.9-3.9c-3.9-1.3-8.2-1.5-12.1-2.8
		c-7.4-2.6-9.6-10.9-4.8-17.1c5.9-7.6,22.4-7.6,28.1,0.1C353.1,246.2,353.8,248.5,355.2,251.5z"/>
	<path d="M215.2,239.2c3.2,0,6,0,9.1,0c0,13.1,0,26,0,39.3c-3,0-5.9,0-9.1,0C215.2,265.4,215.2,252.5,215.2,239.2z"/>
</g>
<image style="overflow:visible;" width="281" height="179" xlink:href="logoPuma.png"  transform="matrix(1 0 0 1 -564 -148)">
</image>
</svg>
