<?xml version="1.0" encoding="utf-8"?>
<!-- Generator: Adobe Illustrator 25.0.0, SVG Export Plug-In . SVG Version: 6.00 Build 0)  -->
<svg version="1.0" id="Layer_1" xmlns="http://www.w3.org/2000/svg" xmlns:xlink="http://www.w3.org/1999/xlink" x="0px" y="0px"
	 viewBox="0 0 107 146.5" style="enable-background:new 0 0 107 146.5;" xml:space="preserve">
<g>
	<path d="M41.2,99.1c-3.7,0-6.7-3-6.7-6.7s3-6.7,6.7-6.7c3.7,0,6.7,3,6.7,6.7S44.9,99.1,41.2,99.1z"/>
	<path d="M71.4,99.1c-3.7,0-6.7-3-6.7-6.7s3-6.7,6.7-6.7c3.7,0,6.7,3,6.7,6.7S75.1,99.1,71.4,99.1z"/>
	<path d="M71.4,93.4H42.7c-0.8,0-1.6-0.4-2-1c-0.5-0.7-0.6-1.5-0.4-2.3l3.9-9.5c0.2-0.5,0.8-0.8,1.4-0.6c0.5,0.2,0.8,0.8,0.6,1.4
		l-3.8,9.4c0,0.1,0,0.2,0.1,0.3c0.1,0.1,0.2,0.2,0.4,0.2h28.7c0.6,0,1,0.5,1,1C72.4,92.9,72,93.4,71.4,93.4z"/>
	<g>
		<path d="M80.2,55.7c-0.5-0.6-1.2-1-2-1l-43.2,0l-2-4.7c-0.2-0.4-0.5-0.6-0.9-0.6h-9.6c-0.6,0-1,0.5-1,1c0,0.6,0.5,1,1,1h8.9
			l12.7,29c0.4,0.9,1.3,1.5,2.3,1.5h24.8c1.1,0,2.1-0.7,2.4-1.8l7-22.3C80.8,57.2,80.7,56.3,80.2,55.7z M69,76H47.8
			c-0.6,0-1-0.5-1-1c0-0.6,0.5-1,1-1H69c0.6,0,1,0.5,1,1C70.1,75.6,69.6,76,69,76z M70.8,69.5H46c-0.6,0-1-0.5-1-1c0-0.6,0.5-1,1-1
			h24.8c0.6,0,1,0.5,1,1C71.9,69,71.4,69.5,70.8,69.5z M72.3,63H44.5c-0.6,0-1-0.5-1-1c0-0.6,0.5-1,1-1h27.8c0.6,0,1,0.5,1,1
			C73.4,62.5,72.9,63,72.3,63z"/>
	</g>
	<path d="M24.3,50.5c0,0.9-0.7,1.6-1.6,1.6c-0.9,0-1.6-0.7-1.6-1.6c0-0.9,0.7-1.6,1.6-1.6C23.6,48.9,24.3,49.6,24.3,50.5z"/>
</g>
</svg>
