<?xml version="1.0" encoding="utf-8"?>
<!-- Generator: Adobe Illustrator 26.3.1, SVG Export Plug-In . SVG Version: 6.00 Build 0)  -->
<svg version="1.1" id="Capa_1" xmlns="http://www.w3.org/2000/svg" xmlns:xlink="http://www.w3.org/1999/xlink" x="0px" y="0px"
	 viewBox="0 0 72 72" style="enable-background:new 0 0 72 72;" xml:space="preserve">
<style type="text/css">
	.st0{fill:#FFFFFF;}
</style>
<g>
	<path class="st0" d="M31.63,6.82c-0.3-3.51,2.12-5.12,4.65-6.63c0.74-0.44,1.47-0.1,2.04,0.82c1.57,2.56,3.06,5.17,4.71,7.68
		c1.33,2.04,2.83,3.96,4.29,5.92c1.76,2.37,3.56,4.71,5.32,7.08c1.38,1.85,3.15,3.2,5.15,4.32c3.27,1.83,6.51,3.71,9.72,5.63
		c0.73,0.44,1.35,1.11,1.95,1.74c1.84,1.92,0.98,4.89-1.01,6.11c-1.31,0.8-2.77,1.06-4.25,1.25c-3.85,0.49-7.58-0.2-11.26-1.22
		c-3.53-0.98-7.02-2.11-10.53-3.18c-7.2-2.22-14.4-4.44-21.6-6.67c-4.09-1.27-8.19-2.51-12.25-3.86c-1.77-0.59-3.51-1.31-5.15-2.19
		c-1.92-1.03-2.14-2.32-1.65-4.72c0.29-1.44,1.12-2.63,2.16-3.67c1.6-1.58,2.23-3.62,2.84-5.71C7.45,7.14,8.18,4.75,9.2,2.5
		c1.28-2.83,3.45-2.88,5.14-0.27c0.77,1.18,1.33,2.51,2.19,3.6c2.4,3.04,5.67,4.35,9.49,4.13c1.6-0.09,3.17-0.55,4.76-0.85
		c0.65-0.13,0.96-0.5,0.86-1.2C31.59,7.55,31.63,7.18,31.63,6.82z M50.58,34.38c0.07-0.2,0.11-0.25,0.1-0.29
		c-0.36-2.85-0.73-5.7-1.09-8.55c-0.08-0.63-0.24-1.27-0.19-1.9c0.05-0.63-0.09-1.06-0.54-1.5c-3.19-3.13-6.36-6.29-9.53-9.44
		c-1.24-1.23-2.49-2.45-3.74-3.67c-0.34-0.33-0.65-0.48-1.15-0.18c-2.63,1.59-5.48,2.56-8.53,2.91c-2.13,0.24-4.25,0.25-6.35-0.34
		C17.7,10.89,16.06,10,14.6,8.44c0.06,0.36,0.07,0.53,0.12,0.69c1.23,3.6,2.64,7.14,4.94,10.21c0.77,1.03,1.64,2.17,2.73,2.75
		c3.42,1.8,6.95,3.41,10.48,5c4.35,1.96,8.73,3.85,13.13,5.7C47.47,33.42,49.03,33.85,50.58,34.38z M22.98,24.36
		c-0.44-0.21-0.91-0.49-1.42-0.64c-0.29-0.09-0.71-0.06-0.95,0.1c-0.48,0.33-0.91,0.75-1.28,1.2c-0.42,0.5-0.74,1.07-1.11,1.61
		c-0.08-0.04-0.16-0.08-0.23-0.12c0.6-1.16,1.2-2.32,1.8-3.49c-1.29-1.01-1.9-1.03-3.07,0.16c-0.67,0.69-1.2,1.51-1.87,2.36
		c0.28-1.52,0.9-2.76,2.01-3.74c-1.43-1.01-1.98-0.99-3.16,0.08c-0.34,0.31-0.66,0.65-0.93,1.02c-0.42,0.57-0.8,1.17-1.2,1.75
		c0.19-1.66,0.94-3.04,2.15-4.2c-1.97-0.88-2.34-0.84-3.65,0.67c-0.65,0.74-1.18,1.6-1.76,2.4c0.17-0.77,0.38-1.53,0.74-2.22
		c0.37-0.71,0.88-1.35,1.33-2.02c-1.26-0.87-1.87-0.87-2.97,0.12c-0.45,0.41-0.84,0.9-1.21,1.39c-0.37,0.49-0.68,1.03-1.02,1.54
		c-0.09-0.05-0.17-0.1-0.26-0.14C5.61,20.81,6.3,19.45,7,18.07c-1.2-0.76-1.82-0.76-2.9,0.25c-0.53,0.5-0.98,1.12-1.39,1.73
		c-0.55,0.83-0.45,1.7,0.32,2.33c0.55,0.45,1.15,0.9,1.81,1.14c3.15,1.15,6.32,2.27,9.51,3.31c4.26,1.39,8.55,2.7,12.84,4.03
		c2.96,0.92,5.93,1.8,8.9,2.71c2.57,0.78,5.15,1.56,7.72,2.36c4.43,1.37,8.8,2.92,13.4,3.73c3.06,0.54,6.07,0.64,9.09-0.08
		c1.13-0.27,2.16-0.74,2.89-1.99c-1.38,0.23-2.62,0.15-3.83,0.57c-0.27-0.47-1.28-0.44-1.83,0.19c-0.15-0.64-1.34-0.8-2.11-0.29
		c-0.4-0.62-1.48-0.64-2.01-0.13c-0.2-0.17-0.37-0.42-0.59-0.49c-0.71-0.23-1.39-0.26-1.8,0.58c0.06-0.26,0.12-0.52,0.19-0.82
		c-0.47-0.08-0.94-0.3-1.31-0.19c-0.36,0.11-0.63,0.55-1.08,0.98c0.18-0.48,0.31-0.8,0.48-1.24c-0.48-0.03-0.93-0.16-1.31-0.05
		c-0.37,0.11-0.68,0.45-1.02,0.69c-0.03-0.03-0.06-0.06-0.09-0.09c0.19-0.28,0.37-0.56,0.56-0.85c-1.2-0.44-2.32-0.73-3.1,0.72
		c-0.04-0.06-0.08-0.12-0.11-0.19c0.24-0.37,0.48-0.74,0.77-1.19c-0.58-0.16-1.12-0.46-1.64-0.42c-0.48,0.04-0.93,0.44-1.52,0.75
		c0.28-0.38,0.48-0.65,0.74-1.02c-0.6-0.19-1.14-0.53-1.65-0.49c-0.48,0.03-0.93,0.46-1.56,0.8c0.31-0.41,0.52-0.69,0.76-0.99
		c-0.97-0.55-1.9-1.16-2.93-0.1c0.17-0.26,0.34-0.52,0.51-0.79c-1.6-0.77-1.6-0.77-3.07,0.14c0.3-0.46,0.5-0.75,0.73-1.1
		c-0.63-0.25-1.21-0.67-1.76-0.64c-0.5,0.03-0.98,0.55-1.49,0.87c0.23-0.4,0.45-0.79,0.73-1.29c-0.75-0.32-1.5-0.92-2.18-0.85
		c-0.68,0.07-1.29,0.82-2.09,1.38c0.47-0.69,0.85-1.24,1.29-1.88c-0.75-0.34-1.61-1.1-2.28-0.96c-0.82,0.17-1.49,1.1-2.38,1.83
		c0.54-0.86,1.01-1.59,1.57-2.48c-0.84-0.25-1.79-0.85-2.58-0.68c-0.77,0.17-1.36,1.13-2.03,1.75c-0.03-0.01-0.07-0.03-0.1-0.04
		c0.44-0.76,0.87-1.52,1.34-2.34c-0.56-0.23-1.16-0.44-1.72-0.73c-0.44-0.22-0.79-0.2-1.11,0.15c-0.58,0.64-1.15,1.3-1.73,1.95
		c-0.04-0.02-0.09-0.04-0.13-0.06c0.46-0.88,0.92-1.77,1.4-2.69c-0.31-0.18-0.66-0.41-1.03-0.57c-1.1-0.49-1.2-0.49-2.05,0.41
		c-0.53,0.56-0.98,1.21-1.46,1.82c-0.06-0.03-0.12-0.06-0.18-0.09C21.9,26.42,22.42,25.43,22.98,24.36z M50.17,24.39
		c0.1,0.68,0.17,1.15,0.23,1.62c0.36,2.64,0.74,5.28,1.05,7.93c0.07,0.63,0.37,0.8,0.89,0.91c2.51,0.53,4.99,1.2,7.52,1.57
		c2.99,0.43,6.03,0.6,9.04,0.86c0.19,0.02,0.52-0.16,0.57-0.32c0.27-0.88,0.43-1.83-0.25-2.56c-0.85-0.91-1.72-1.88-2.76-2.53
		c-2.7-1.68-5.49-3.21-8.27-4.76c-0.38-0.21-0.86-0.28-1.31-0.35C54.59,26.44,52.28,26.09,50.17,24.39z M19.72,20.79
		c-0.13-0.2-0.2-0.31-0.26-0.42c-1.16-1.96-2.53-3.83-3.42-5.91c-1.32-3.08-2.26-6.32-3.46-9.45c-0.33-0.86-0.94-1.64-1.54-2.35
		c-0.51-0.6-0.9-0.53-1.22,0.17C9.32,3.96,8.84,5.1,8.47,6.27c-0.56,1.76-0.94,3.57-1.55,5.31c-0.46,1.31-1.17,2.53-1.73,3.71
		C9.91,17.07,14.76,18.91,19.72,20.79z M32.21,8.78c0.11,0.06,0.22,0.11,0.33,0.17c0.42-0.21,0.86-0.4,1.27-0.64
		c1.08-0.64,1.47-0.62,2.39,0.21c0.19,0.17,0.38,0.35,0.54,0.55c0.29,0.37,0.54,0.35,0.89,0.05c0.86-0.74,1.73-1.45,2.62-2.15
		c0.37-0.29,0.43-0.54,0.16-0.96c-0.8-1.25-1.6-2.51-2.32-3.81c-1.08-1.98-1.15-1.64-2.79-0.51c-1.05,0.73-2.23,1.48-2.55,2.79
		C32.42,5.88,32.39,7.35,32.21,8.78z M40.48,12.73c0.82-0.69,1.65-1.37,2.45-2.08c0.11-0.1,0.17-0.4,0.1-0.51
		c-0.39-0.65-0.82-1.27-1.29-1.97c-1.09,0.91-2.12,1.77-3.16,2.65C39.27,11.51,39.86,12.11,40.48,12.73z M54.81,25.28
		c-1.5-1.71-2.94-3.34-4.43-5.03c-0.38,0.34-0.76,0.69-1.15,1.04c0.09,0,0.18,0.01,0.27,0.01c0.23,0.67,0.44,1.35,0.69,2.02
		c0.08,0.2,0.23,0.41,0.41,0.52C51.89,24.59,53.29,25.04,54.81,25.28z M41.94,13.97c0.75,0.83,1.45,1.6,2.17,2.4
		c0.76-0.64,1.43-1.22,2.17-1.85c-0.67-0.86-1.32-1.67-2.02-2.56C43.45,12.67,42.68,13.33,41.94,13.97z M45.64,17.55
		c0.77,0.85,1.46,1.61,2.19,2.41c0.55-0.49,1.02-0.9,1.51-1.33c-0.67-0.91-1.27-1.72-1.92-2.6C46.75,16.6,46.17,17.1,45.64,17.55z"
		/>
	<path class="st0" d="M42.99,62.38c1.21,0.59,2.43,1.04,3.48,1.74c1.65,1.08,3.18,2.32,4.76,3.5c0.12,0.09,0.26,0.23,0.27,0.36
		c0.12,1.3,1.21,1.9,1.94,2.76c0.05,0.06,0.14,0.11,0.15,0.17c0.05,0.32,0.07,0.64,0.1,0.97c-0.29-0.08-0.62-0.08-0.85-0.24
		c-0.31-0.21-0.52-0.56-0.8-0.82c-0.62-0.58-1.16-1.18-2.02-1.55c-1-0.44-1.77-1.38-2.68-2.04c-2.67-1.93-5.63-3.11-8.89-3.65
		c-3.98-0.65-7.78-0.11-11.47,1.39c-2.31,0.94-4.33,2.34-6.17,4c-0.11,0.1-0.22,0.27-0.35,0.29c-1.38,0.25-1.96,1.49-2.86,2.31
		c-0.29,0.26-0.55,0.65-0.96,0.28c-0.41-0.37-0.07-0.71,0.17-1c0.33-0.39,0.7-0.75,1.06-1.12c0.4-0.42,0.7-0.85,0.9-1.46
		c0.2-0.6,0.8-1.11,1.31-1.55c2.05-1.74,4.31-3.14,6.85-4.07c0.14-0.05,0.25-0.15,0.49-0.3c-3.15-0.81-6.01-2.03-8.68-3.83
		c0.51-0.02,1.01-0.04,1.43-0.06c-0.16-0.71-0.32-1.4-0.47-2.1c-1.01-0.18-1.15-0.09-1.45,0.9c-0.04,0.15-0.07,0.33-0.18,0.42
		c-0.27,0.24-0.57,0.43-0.86,0.64c-0.19-0.28-0.52-0.55-0.54-0.84c-0.09-2.01,0.24-3.96,1.39-5.66c0.76-1.12,2.01-1,2.55,0.24
		c0.73,1.67,0.98,3.46,0.89,5.27c-0.02,0.36-0.24,0.71-0.38,1.08c0.02,0.01,0.06,0.07,0.09,0.06c1.55-0.27,2.84,0.54,4.2,1.01
		c4.02,1.37,8.12,1.89,12.36,1.52c5.03-0.44,9.63-2.05,13.79-4.85c4.32-2.9,7.71-6.68,9.98-11.4c0.34-0.7,0.72-1.13,1.57-1
		c0.39,0.06,0.8-0.02,1.37-0.05C60.2,53.35,53.07,59.5,42.99,62.38z M18.47,54.96c0.54-0.09,0.86-0.14,1.31-0.21
		c-0.15-0.66-0.28-1.26-0.41-1.86c-0.12,0-0.24,0-0.36,0C18.84,53.53,18.68,54.16,18.47,54.96z"/>
	<path class="st0" d="M66.63,27.57c-0.24-0.12-0.35-0.19-0.46-0.23c-1.46-0.51-2.06-1.5-2.44-3.05c-1.44-5.92-4.57-10.9-9.16-14.91
		c-3.08-2.7-6.59-4.71-10.53-5.88c-0.76-0.22-1.33-0.58-1.67-1.31c-0.23-0.48-0.52-0.93-0.9-1.6c4.56,0.92,8.53,2.65,12.1,5.25
		C60.93,11.18,65.22,18.42,66.63,27.57z"/>
	<path class="st0" d="M31.08,44.48c-0.72-0.22-1.6,0.12-1.74-0.9c-1.22,0.64-1.32,1.15-0.42,2.17c1.17,1.33,0.32,3.86-1.45,4.21
		c-0.28,0.06-0.78-0.04-0.88-0.23c-0.13-0.24,0.03-0.65,0.08-0.98c0.01-0.04,0.06-0.08,0.1-0.12c1.2-1.45,1.22-1.46,0.18-2.96
		c-0.49-0.71-0.46-1.39-0.03-2.08c0.49-0.79,1.1-1.49,2.1-1.46c0.34,0.01,0.67,0.45,0.99,0.68c1.07-0.14,2.25-0.32,3.44-0.41
		c0.28-0.02,0.59,0.29,0.88,0.45c-0.18,0.31-0.31,0.83-0.55,0.89c-1.17,0.28-1.19,1.14-1.19,2.05c0,0.92,0.02,1.85-0.02,2.77
		c-0.02,0.57,0.05,1.36-0.76,1.35c-0.74-0.01-0.71-0.76-0.72-1.32C31.07,47.21,31.08,45.83,31.08,44.48z"/>
	<path class="st0" d="M24.13,55.11c-0.1,0.91-0.13,1.66-0.28,2.38c-0.06,0.29-0.4,0.52-0.61,0.78c-0.26-0.24-0.67-0.42-0.77-0.72
		c-0.48-1.32-0.31-2.69-0.08-4.04c0.11-0.65,0.28-1.31,0.55-1.91c0.35-0.78,1.05-0.85,1.46-0.1c0.5,0.91,0.82,1.93,1.22,2.9
		c0.08,0.18,0.15,0.37,0.39,0.54c0-0.82-0.03-1.65,0.01-2.47c0.03-0.55,0.05-1.3,0.73-1.35c0.71-0.05,0.8,0.71,0.9,1.24
		c0.33,1.67,0.23,3.34-0.3,4.95c-0.13,0.4-0.56,0.93-0.9,0.97c-0.35,0.04-0.9-0.36-1.13-0.72C24.86,56.83,24.56,56.01,24.13,55.11z"
		/>
	<path class="st0" d="M3.93,27.18c0.57,0.23,1.13,0.41,1.64,0.69c0.16,0.09,0.22,0.47,0.22,0.71c0.01,1.82-0.13,3.65,0.01,5.46
		c0.14,1.78,0.57,3.54,0.87,5.3c0.03,0.17,0.06,0.35,0.11,0.66c-0.68,0-1.3,0.02-1.92-0.02c-0.13-0.01-0.33-0.25-0.37-0.42
		c-0.98-4-1.31-8.05-0.7-12.14C3.79,27.38,3.84,27.34,3.93,27.18z"/>
	<path class="st0" d="M42.78,46.64c0.28,0.76,0.6,1.41,0.73,2.11c0.07,0.37-0.09,1.01-0.36,1.17c-0.52,0.31-0.81-0.23-1.01-0.65
		c-0.25-0.53-0.45-1.08-0.67-1.62c-0.52-0.02-0.71,0.22-0.75,0.68c-0.04,0.43-0.11,0.87-0.27,1.27c-0.07,0.19-0.36,0.42-0.55,0.42
		c-0.19,0-0.46-0.23-0.56-0.43c-0.14-0.29-0.21-0.64-0.21-0.97c-0.02-1.57,0-3.14-0.02-4.7c-0.01-0.57,0.25-0.92,0.76-1.12
		c0.31-0.12,0.62-0.25,0.94-0.35c1.24-0.35,2.09-0.13,2.61,0.67c0.59,0.9,0.48,2.2-0.26,3.08C43.04,46.37,42.89,46.52,42.78,46.64z
		 M40.73,45.91c0.82-0.31,1.32-0.62,1.23-1.33c-0.02-0.15-0.49-0.38-0.69-0.33C40.3,44.5,41.03,45.26,40.73,45.91z"/>
	<path class="st0" d="M11.91,47.7c-0.68-0.14-1.04,0.01-1.03,0.7c0.01,0.2-0.02,0.45-0.14,0.59c-0.26,0.3-0.6,0.53-0.9,0.79
		C9.62,49.45,9.2,49.12,9.2,48.8c-0.01-1.87,0.06-3.75,0.16-5.62c0.02-0.27,0.38-0.76,0.56-0.75c0.33,0.02,0.77,0.26,0.94,0.54
		c0.19,0.32,0.16,0.79,0.18,1.19c0.03,0.56,0.01,1.12,0.01,1.71c0.71,0.14,1.06-0.07,1.02-0.84c-0.03-0.56-0.03-1.14,0.09-1.69
		c0.07-0.3,0.4-0.74,0.64-0.76c0.27-0.02,0.72,0.31,0.82,0.58c0.17,0.46,0.18,1.01,0.16,1.51c-0.06,1.36-0.15,2.71-0.27,4.07
		c-0.05,0.54-0.17,1.18-0.89,1.11c-0.72-0.07-0.78-0.71-0.76-1.3C11.87,48.29,11.89,48.01,11.91,47.7z"/>
	<path class="st0" d="M38.66,46.25c-0.2,0.76-0.34,1.65-0.67,2.46c-0.33,0.8-1.01,1.28-1.95,1.25c-0.91-0.03-1.5-0.56-1.81-1.33
		c-0.68-1.68-0.65-3.37,0.2-4.98c0.42-0.8,1.09-1.31,2.06-1.22c0.91,0.08,1.43,0.69,1.68,1.5C38.37,44.63,38.47,45.37,38.66,46.25z
		 M36.91,46.33c-0.08-0.44-0.12-0.87-0.24-1.28c-0.06-0.18-0.28-0.43-0.44-0.44c-0.16-0.01-0.42,0.2-0.49,0.38
		c-0.34,0.92-0.31,1.85,0.05,2.76c0.06,0.15,0.3,0.33,0.45,0.32c0.15-0.01,0.35-0.23,0.4-0.39C36.77,47.24,36.83,46.78,36.91,46.33z
		"/>
	<path class="st0" d="M19.24,46.31c-0.2,0.74-0.34,1.61-0.66,2.4c-0.33,0.81-1.01,1.28-1.94,1.26c-0.91-0.02-1.5-0.55-1.82-1.33
		c-0.67-1.68-0.65-3.36,0.19-4.98c0.42-0.81,1.09-1.32,2.05-1.23c0.94,0.09,1.46,0.72,1.7,1.56C18.97,44.7,19.06,45.44,19.24,46.31z
		 M16.03,46.2c0.12,0.53,0.18,1.07,0.37,1.56c0.17,0.44,0.57,0.52,0.77,0.04c0.4-0.95,0.44-1.94,0.02-2.9
		c-0.2-0.46-0.59-0.45-0.8-0.02C16.2,45.27,16.15,45.74,16.03,46.2z"/>
	<path class="st0" d="M28.44,55.49c0.07-0.86,0.12-1.6,0.18-2.35c0.11-1.4,0.3-1.66,1.41-1.97c1.21-0.34,2.22-0.06,2.85,0.79
		c0.59,0.8,0.65,1.72,0.52,2.66c-0.26,1.74-1.83,3.33-3.56,3.64c-0.86,0.16-1.09,0.03-1.22-0.82
		C28.51,56.77,28.49,56.07,28.44,55.49z M30.21,56.26c0.9-0.24,1.74-1.38,1.61-2.19c-0.09-0.54-0.34-1.02-0.94-1.05
		c-0.21-0.01-0.62,0.26-0.63,0.43C30.17,54.38,30.21,55.31,30.21,56.26z"/>
	<path class="st0" d="M10.86,55.18c-0.11,0.58-0.15,1.18-0.34,1.73c-0.54,1.63-2.42,2.16-3.65,0.95c-0.55-0.54-1.08-1.36-1.14-2.1
		c-0.1-1.28,0.13-2.59,0.32-3.87c0.07-0.48,0.38-1.06,1.04-0.9c0.62,0.15,0.65,0.76,0.62,1.27c-0.04,0.72-0.22,1.42-0.27,2.14
		c-0.04,0.51-0.05,1.05,0.1,1.52c0.1,0.32,0.49,0.56,0.76,0.83c0.26-0.27,0.74-0.52,0.75-0.81c0.06-0.96-0.03-1.93-0.1-2.9
		c-0.02-0.35-0.23-0.7-0.21-1.05c0.01-0.28,0.18-0.73,0.37-0.79c0.22-0.07,0.7,0.13,0.81,0.34c0.32,0.6,0.57,1.26,0.74,1.92
		C10.81,54.03,10.8,54.61,10.86,55.18z"/>
	<path class="st0" d="M14.12,56.32c-0.27-0.5-0.67-0.98-0.57-1.13c0.22-0.33,0.66-0.6,1.07-0.7c0.43-0.1,0.92-0.03,1.37,0.06
		c0.23,0.05,0.55,0.28,0.59,0.48c0.05,0.22-0.15,0.51-0.29,0.74c-0.2,0.33-0.45,0.63-0.66,0.95c-0.12,0.19-0.18,0.43-0.3,0.62
		c-0.45,0.73-1.02,1.31-1.97,1.25c-0.91-0.06-1.39-0.69-1.74-1.44c-0.75-1.63-0.41-4.08,0.84-5.33c0.41-0.41,1.01-0.72,1.58-0.86
		c0.7-0.18,1.44,0.15,1.61,0.85c0.16,0.64,0.01,1.38-0.09,2.06c-0.02,0.11-0.52,0.26-0.72,0.19c-0.19-0.07-0.3-0.41-0.4-0.64
		c-0.13-0.29-0.22-0.6-0.33-0.9c-0.29,0.22-0.75,0.4-0.83,0.68c-0.24,0.88-0.39,1.79-0.46,2.7c-0.02,0.27,0.3,0.74,0.53,0.79
		C13.59,56.75,13.93,56.42,14.12,56.32z"/>
	<path class="st0" d="M31.11,0.34c-0.5,0.72-0.93,1.38-1.41,2.01c-0.13,0.17-0.35,0.31-0.56,0.36c-2.8,0.62-5.46,1.6-8,2.92
		c-0.18,0.09-0.51,0.08-0.67-0.03c-0.5-0.34-0.95-0.76-1.44-1.16C22.17,2.24,28.66,0.2,31.11,0.34z"/>
	<path class="st0" d="M36.95,56.29c-0.81-0.07-1.43,0.03-1.48,1c-0.01,0.19-0.11,0.42-0.24,0.55c-0.21,0.2-0.5,0.46-0.72,0.43
		c-0.21-0.03-0.52-0.38-0.54-0.61c-0.17-2.15,0.18-4.22,1.48-5.99c0.7-0.95,1.87-0.82,2.37,0.27c0.78,1.7,1.02,3.54,0.95,5.41
		c-0.01,0.22-0.09,0.47-0.22,0.65c-0.14,0.19-0.4,0.42-0.58,0.41c-0.23-0.02-0.56-0.23-0.63-0.43
		C37.14,57.45,37.07,56.88,36.95,56.29z M36.67,52.92c-0.14-0.01-0.27-0.02-0.41-0.03c-0.16,0.65-0.32,1.29-0.52,2.06
		c0.51-0.08,0.83-0.13,1.27-0.2C36.89,54.1,36.78,53.51,36.67,52.92z"/>
	<path class="st0" d="M45.95,45.28c0.44-0.1,0.83-0.24,1.23-0.25c0.23,0,0.61,0.19,0.65,0.36c0.07,0.24-0.03,0.65-0.22,0.8
		c-0.37,0.29-0.84,0.5-1.29,0.66c-0.53,0.18-0.59,0.48-0.4,1c0.51-0.13,1-0.33,1.49-0.37c0.29-0.02,0.76,0.16,0.86,0.38
		c0.1,0.22-0.07,0.75-0.29,0.88c-0.68,0.4-1.41,0.74-2.15,0.99c-0.64,0.21-1.54-0.36-1.55-1.01c-0.03-1.58,0.02-3.17,0.11-4.75
		c0.05-0.76,0.54-1.25,1.32-1.39c0.58-0.11,1.16-0.29,1.74-0.31c0.28-0.01,0.73,0.24,0.81,0.47c0.08,0.23-0.15,0.68-0.38,0.86
		c-0.4,0.3-0.89,0.5-1.37,0.68C46.05,44.44,45.81,44.72,45.95,45.28z"/>
	<path class="st0" d="M21.43,45.32c0.34-0.11,0.64-0.28,0.93-0.27c0.34,0.02,0.67,0.2,1,0.32c-0.16,0.34-0.25,0.74-0.5,1
		c-0.23,0.24-0.62,0.36-0.96,0.46c-0.57,0.15-0.67,0.47-0.46,1.01c0.49-0.13,0.98-0.33,1.48-0.36c0.29-0.02,0.76,0.16,0.85,0.38
		c0.09,0.23-0.08,0.76-0.29,0.89c-0.68,0.4-1.41,0.74-2.16,0.99c-0.64,0.21-1.51-0.36-1.53-1.03c-0.03-1.58,0-3.17,0.1-4.76
		c0.05-0.76,0.56-1.24,1.34-1.38c0.61-0.11,1.21-0.28,1.82-0.31c0.25-0.01,0.66,0.26,0.73,0.48c0.07,0.23-0.12,0.66-0.34,0.82
		c-0.43,0.31-0.94,0.52-1.44,0.72C21.52,44.46,21.3,44.75,21.43,45.32z"/>
	<path class="st0" d="M8.13,42.09c0.11,0.09,0.49,0.25,0.55,0.49c0.07,0.24-0.13,0.6-0.3,0.85c-0.14,0.2-0.42,0.29-0.61,0.46
		c-0.61,0.51-0.65,0.97-0.15,1.59c1.27,1.56,1.1,2.98-0.53,4.16c-0.24,0.17-0.55,0.34-0.83,0.35c-0.26,0.01-0.63-0.12-0.77-0.32
		c-0.12-0.16-0.06-0.56,0.06-0.77c0.19-0.32,0.49-0.59,0.77-0.86c0.55-0.51,0.59-1.04,0.13-1.63c-0.18-0.22-0.33-0.46-0.5-0.68
		c-0.51-0.64-0.54-1.29-0.15-2.01C6.29,42.82,7.22,42.09,8.13,42.09z"/>
	<path class="st0" d="M47.77,22.18c-0.03,0.51-0.29,0.8-0.81,0.82c-0.56,0.03-0.87-0.34-0.79-0.79c0.05-0.3,0.44-0.7,0.75-0.77
		C47.36,21.33,47.74,21.62,47.77,22.18z"/>
	<path class="st0" d="M40.49,15.16c-0.32,0.21-0.69,0.63-0.96,0.57c-0.31-0.06-0.7-0.52-0.75-0.85c-0.07-0.46,0.32-0.87,0.82-0.75
		c0.34,0.08,0.61,0.44,0.91,0.68C40.5,14.93,40.5,15.04,40.49,15.16z"/>
	<path class="st0" d="M43.97,18.55c-0.02,0.39-0.27,0.67-0.8,0.69c-0.56,0.01-0.85-0.37-0.77-0.81c0.05-0.3,0.45-0.67,0.75-0.74
		C43.62,17.57,43.97,17.87,43.97,18.55z"/>
	<path class="st0" d="M36.38,10.68c0.2,0.3,0.52,0.57,0.57,0.89c0.08,0.5-0.28,0.83-0.78,0.82c-0.51-0.01-0.84-0.38-0.75-0.86
		c0.06-0.32,0.41-0.58,0.62-0.87C36.15,10.68,36.26,10.68,36.38,10.68z"/>
</g>
</svg>
